<svg xmlns="http://www.w3.org/2000/svg" viewBox="0 0 35 35" fill="none"><path fill="#fff" d="M.207.939h34v34h-34z"/><path fill="#25C365" d="M7.666 26.165a1.676 1.676 0 0 0 0 3.35 1.676 1.676 0 0 0 0-3.35ZM26.14 5.923a1.677 1.677 0 1 0 1.675 1.68v-.006c0-.924-.751-1.674-1.675-1.674ZM14.007 12.69v2.056c0 .306.248.56.56.56h16.598a.56.56 0 0 0 .56-.56v-2.056a.564.564 0 0 0-.56-.56H14.567a.565.565 0 0 0-.56.56Zm6.387 9.477v-2.05a.56.56 0 0 0-.56-.56H3.236a.56.56 0 0 0-.56.56v2.05c0 .306.248.56.56.56h16.598c.312 0 .56-.248.56-.56Zm11.204-2.76a.548.548 0 0 0-.37-.208l-2.038-.208a.555.555 0 0 0-.612.48c-.855 6.364-6.717 10.834-13.081 9.973-.884-.121-1.75-.34-2.582-.652a.545.545 0 0 0-.71.306l-.78 1.888a.563.563 0 0 0 .318.74c7.617 2.939 16.182-.855 19.122-8.473a14.61 14.61 0 0 0 .866-3.425.534.534 0 0 0-.133-.421Zm-28.8-4.713a.531.531 0 0 1-.064-.427A14.773 14.773 0 0 1 17.056 3.156c1.652 0 3.298.272 4.857.82.289.093.45.405.358.693-.006.012-.011.03-.017.04l-.734 1.918a.546.546 0 0 1-.698.33 11.632 11.632 0 0 0-3.772-.624 11.484 11.484 0 0 0-7.294 2.57 11.705 11.705 0 0 0-3.95 6.11.556.556 0 0 1-.537.416.474.474 0 0 1-.127 0l-1.998-.457a.595.595 0 0 1-.347-.277Z"/></svg>