<svg xmlns="http://www.w3.org/2000/svg" viewBox="0 0 35 35" fill="none"><path fill="#fff" d="M.457.939h34v34h-34z"/><path fill="#244AE5" d="M9.664 32.721h2.956c.27 0 .448-.179.448-.447v-.18l-2.419-6.54a.493.493 0 0 0-.448-.269H7.245c-.269.09-.448.27-.448.448v.18l2.419 6.54c.09.179.269.268.448.268ZM21.848 3.694l2.42 6.54c.089.18.268.269.447.269h2.957c.268 0 .448-.18.448-.448v-.18l-2.42-6.54a.684.684 0 0 0-.447-.179h-2.957c-.269 0-.448.18-.448.448v.09Zm-6.72 29.027h2.957c.27 0 .448-.179.448-.447v-.18l-5.106-13.886a.493.493 0 0 0-.448-.27h-2.957c-.269 0-.448.18-.448.449v.179l5.107 13.887c.09.179.269.268.448.268Zm5.824 0h2.957c.269 0 .448-.179.448-.447v-.09L13.785 3.425c0-.18-.18-.269-.358-.269H10.38c-.18 0-.359.18-.359.448v.18l10.572 28.669c.09.179.18.268.358.268Zm.538-14.782h2.956c.27 0 .448-.18.448-.448v-.18L19.788 3.426a.493.493 0 0 0-.448-.269h-2.957c-.269 0-.448.18-.448.448v.18l5.196 13.886c.09.18.18.269.359.269Z"/></svg>