<svg xmlns="http://www.w3.org/2000/svg" viewBox="0 0 35 35" fill="none"><path fill="#fff" d="M.375.939h34v34h-34z"/><g clip-path="url(#a)"><path fill="#0A2767" d="M33.264 18.68a.71.71 0 0 0-.338-.61h-.004l-.013-.008-11.014-6.519a1.478 1.478 0 0 0-1.651 0l-11.013 6.52-.013.007a.718.718 0 0 0 .017 1.229l11.013 6.519a1.478 1.478 0 0 0 1.651 0l11.013-6.52a.709.709 0 0 0 .352-.619Z"/><path fill="#0364B8" d="M10.516 14.325h7.227v6.625h-7.227v-6.625Zm21.271-6.734v-3.03a1.373 1.373 0 0 0-1.34-1.405H11.692a1.373 1.373 0 0 0-1.34 1.405v3.03l11.087 2.956 10.348-2.956Z"/><path fill="#0078D4" d="M10.355 7.592h7.392v6.652h-7.392V7.592Z"/><path fill="#28A8EA" d="M25.137 7.592h-7.39v6.652l7.39 6.652h6.653v-6.652l-6.652-6.652Z"/><path fill="#0078D4" d="M17.746 14.243h7.392v6.652h-7.392v-6.652Z"/><path fill="#0364B8" d="M17.746 20.896h7.392v6.652h-7.392v-6.652Z"/><path fill="#14447D" d="M10.52 20.949h7.227v6.022H10.52V20.95Z"/><path fill="#0078D4" d="M25.137 20.896h6.652v6.652h-6.652v-6.652Z"/><path fill="url(#b)" d="m32.928 19.257-.014.007-11.013 6.194a1.535 1.535 0 0 1-.745.23l-.602-.351c-.05-.026-.1-.054-.148-.085l-11.16-6.37H9.24l-.365-.204v12.539c.006.836.688 1.51 1.525 1.505h21.365c.013 0 .024-.006.037-.006.177-.011.351-.048.518-.108.072-.03.141-.067.208-.108a1.492 1.492 0 0 0 .74-1.283V18.678c-.002.24-.131.461-.34.579Z"/><path fill="#0A2767" d="M32.676 18.629v.769L21.16 27.326 9.238 18.888a.007.007 0 0 0-.007-.008l-1.094-.658v-.554l.45-.007.954.547.022.007.082.052S20.85 24.66 20.88 24.675l.428.251a2.04 2.04 0 0 1 .118-.044c.023-.015 11.125-6.26 11.125-6.26l.125.007Z" opacity=".5"/><path fill="#1490DF" d="m32.928 19.257-.014.008-11.013 6.194a1.544 1.544 0 0 1-1.651 0L9.236 19.265l-.013-.008a.665.665 0 0 1-.348-.579v12.539c.005.836.688 1.51 1.524 1.505h21.343a1.514 1.514 0 0 0 1.525-1.505V18.678c0 .24-.13.461-.339.579Z"/><path fill="#000" d="m22.058 25.368-.165.093a1.53 1.53 0 0 1-.729.237l4.19 4.955 7.31 1.761c.2-.15.36-.35.463-.578l-11.07-6.468Z" opacity=".1"/><path fill="#000" d="m22.804 24.947-.911.512a1.532 1.532 0 0 1-.729.237l1.963 5.413 9.539 1.302c.376-.282.597-.725.597-1.195v-.162l-10.459-6.107Z" opacity=".05"/><path fill="#28A8EA" d="M10.42 32.722h21.32c.328.001.648-.102.913-.296l-12.1-7.088c-.05-.025-.1-.053-.147-.085l-11.161-6.37h-.006l-.364-.205v12.496c0 .854.69 1.547 1.545 1.548Z"/><path fill="#000" d="M19.223 10.423V26.19a1.359 1.359 0 0 1-.85 1.257c-.159.068-.33.103-.503.103H8.875V9.808h1.478v-.74h7.517a1.358 1.358 0 0 1 1.353 1.355Z" opacity=".1"/><path fill="#000" d="M18.484 11.163v15.765c.002.179-.036.356-.111.518a1.347 1.347 0 0 1-1.242.84H8.875V9.808h8.256c.215-.002.426.051.614.155.453.228.739.692.739 1.2Z" opacity=".2"/><path fill="#000" d="M18.484 11.163V25.45a1.364 1.364 0 0 1-1.353 1.358H8.875v-17h8.256c.215-.002.426.051.614.155.453.228.739.692.739 1.2Z" opacity=".2"/><path fill="#000" d="M17.745 11.163V25.45a1.36 1.36 0 0 1-1.353 1.358H8.875v-17h7.517c.748 0 1.353.607 1.353 1.354Z" opacity=".2"/><path fill="url(#c)" d="M2.84 9.808h13.55c.749 0 1.355.606 1.355 1.355v13.55c0 .75-.606 1.356-1.354 1.356H2.839a1.355 1.355 0 0 1-1.355-1.355V11.163c0-.749.607-1.355 1.355-1.355Z"/><path fill="#fff" d="M5.718 15.49a3.941 3.941 0 0 1 1.548-1.71 4.678 4.678 0 0 1 2.459-.616 4.354 4.354 0 0 1 2.276.584c.649.388 1.172.955 1.505 1.634.363.748.544 1.57.528 2.402a5.564 5.564 0 0 1-.543 2.513 3.998 3.998 0 0 1-1.553 1.69 4.528 4.528 0 0 1-2.36.6 4.449 4.449 0 0 1-2.326-.59 3.965 3.965 0 0 1-1.526-1.637 5.147 5.147 0 0 1-.534-2.374 5.715 5.715 0 0 1 .526-2.496Zm1.65 4.013c.178.45.48.84.87 1.125.398.278.875.422 1.36.41a2.383 2.383 0 0 0 1.452-.423 2.45 2.45 0 0 0 .845-1.125 4.366 4.366 0 0 0 .27-1.57 4.775 4.775 0 0 0-.254-1.589 2.512 2.512 0 0 0-.819-1.172 2.25 2.25 0 0 0-1.439-.443 2.347 2.347 0 0 0-1.392.413 2.58 2.58 0 0 0-.887 1.135 4.508 4.508 0 0 0-.006 3.24Z"/><path fill="#50D9FF" d="M25.137 7.592h6.652v6.652h-6.652V7.592Z"/></g><defs><linearGradient id="b" x1="21.071" x2="21.071" y1="18.678" y2="32.722" gradientUnits="userSpaceOnUse"><stop stop-color="#35B8F1"/><stop offset="1" stop-color="#28A8EA"/></linearGradient><linearGradient id="c" x1="4.309" x2="14.92" y1="8.749" y2="27.128" gradientUnits="userSpaceOnUse"><stop stop-color="#1784D9"/><stop offset=".5" stop-color="#107AD5"/><stop offset="1" stop-color="#0A63C9"/></linearGradient><clipPath id="a"><path fill="#fff" d="M1.484 3.156h31.783v29.565H1.484z"/></clipPath></defs></svg>