<svg xmlns="http://www.w3.org/2000/svg" viewBox="0 0 35 35" fill="none"><path fill="#fff" d="M.04.939h34v34h-34z"/><g clip-path="url(#a)"><path fill="#4285F4" d="M4.274 29.03h4.703V17.607l-6.72-5.04v14.447c0 1.114.903 2.016 2.017 2.016Z"/><path fill="#34A853" d="M25.102 29.03h4.703a2.015 2.015 0 0 0 2.016-2.016V12.567l-6.72 5.04V29.03Z"/><path fill="#FBBC04" d="M25.102 8.87v8.736l6.719-5.04V9.88c0-2.492-2.844-3.915-4.838-2.42l-1.881 1.412Z"/><path fill="#EA4335" d="M8.977 17.606V8.87l8.063 6.047 8.063-6.047v8.735l-8.063 6.047-8.063-6.047Z"/><path fill="#C5221F" d="M2.258 9.879v2.687l6.72 5.04V8.87L7.095 7.46c-1.994-1.496-4.838-.073-4.838 2.419Z"/></g><defs><clipPath id="a"><path fill="#fff" d="M2.258 6.85h29.565v22.178H2.258z"/></clipPath></defs></svg>