<svg xmlns="http://www.w3.org/2000/svg" viewBox="0 0 35 35" fill="none"><g clip-path="url(#a)"><path fill="#fff" d="M.125.939h34v34h-34z"/><g clip-path="url(#b)"><path fill="#EF54AC" d="M33.867 17.962 26.4 4.758a3.135 3.135 0 0 0-2.714-1.602H10.568a3.135 3.135 0 0 0-2.714 1.602l-.942 1.67h16.752l-1.862 3.273H5.052L3.19 12.996H19.94l-1.861 3.272H1.329l-.942 1.694.92 1.602h16.75l1.84 3.272H3.144l1.861 3.272h16.752l1.861 3.273H6.868l.986 1.739a3.135 3.135 0 0 0 2.714 1.601h13.118A3.135 3.135 0 0 0 26.4 31.12l7.467-13.158Z"/></g></g><defs><clipPath id="a"><path fill="#fff" d="M.125.939h34v34h-34z"/></clipPath><clipPath id="b"><path fill="#fff" d="M.387 3.156h33.48v29.565H.387z"/></clipPath></defs></svg>