<svg xmlns="http://www.w3.org/2000/svg" xmlns:xlink="http://www.w3.org/1999/xlink" width="650" zoomAndPan="magnify" viewBox="0 0 487.5 74.999997" height="100" preserveAspectRatio="xMidYMid meet" version="1.0"><defs><clipPath id="0eb8a1ea8a"><path d="M 54 0.0390625 L 106 0.0390625 L 106 53 L 54 53 Z M 54 0.0390625 " clip-rule="nonzero"/></clipPath><clipPath id="7b3b39c2cd"><path d="M 69.722656 0.398438 L 105.554688 52.847656 L 91.011719 52.847656 L 54.921875 0.398438 Z M 69.722656 0.398438 " clip-rule="nonzero"/></clipPath><clipPath id="d57002a26b"><path d="M 9 30 L 24 30 L 24 45 L 9 45 Z M 9 30 " clip-rule="nonzero"/></clipPath><clipPath id="ee95dd9c56"><path d="M 23.5 37.660156 C 23.5 38.101562 23.457031 38.539062 23.367188 38.976562 C 23.28125 39.410156 23.15625 39.832031 22.984375 40.242188 C 22.816406 40.652344 22.605469 41.039062 22.359375 41.410156 C 22.113281 41.777344 21.835938 42.117188 21.523438 42.433594 C 21.207031 42.746094 20.867188 43.023438 20.5 43.269531 C 20.128906 43.519531 19.742188 43.726562 19.332031 43.894531 C 18.921875 44.066406 18.5 44.191406 18.066406 44.28125 C 17.628906 44.367188 17.191406 44.410156 16.75 44.410156 C 16.304688 44.410156 15.867188 44.367188 15.429688 44.28125 C 14.996094 44.191406 14.574219 44.066406 14.164062 43.894531 C 13.753906 43.726562 13.367188 43.519531 12.996094 43.269531 C 12.628906 43.023438 12.289062 42.746094 11.976562 42.433594 C 11.660156 42.117188 11.382812 41.777344 11.136719 41.410156 C 10.890625 41.039062 10.679688 40.652344 10.511719 40.242188 C 10.34375 39.832031 10.214844 39.410156 10.128906 38.976562 C 10.042969 38.539062 9.996094 38.101562 9.996094 37.660156 C 9.996094 37.214844 10.042969 36.777344 10.128906 36.339844 C 10.214844 35.90625 10.34375 35.484375 10.511719 35.074219 C 10.679688 34.664062 10.890625 34.277344 11.136719 33.910156 C 11.382812 33.539062 11.660156 33.199219 11.976562 32.886719 C 12.289062 32.570312 12.628906 32.292969 12.996094 32.046875 C 13.367188 31.800781 13.753906 31.589844 14.164062 31.421875 C 14.574219 31.253906 14.996094 31.125 15.429688 31.039062 C 15.867188 30.953125 16.304688 30.90625 16.75 30.90625 C 17.191406 30.90625 17.628906 30.953125 18.066406 31.039062 C 18.5 31.125 18.921875 31.253906 19.332031 31.421875 C 19.742188 31.589844 20.128906 31.800781 20.5 32.046875 C 20.867188 32.292969 21.207031 32.570312 21.523438 32.886719 C 21.835938 33.199219 22.113281 33.539062 22.359375 33.910156 C 22.605469 34.277344 22.816406 34.664062 22.984375 35.074219 C 23.15625 35.484375 23.28125 35.90625 23.367188 36.339844 C 23.457031 36.777344 23.5 37.214844 23.5 37.660156 Z M 23.5 37.660156 " clip-rule="nonzero"/></clipPath><clipPath id="7f6a338e91"><path d="M 26 29 L 93 29 L 93 74.960938 L 26 74.960938 Z M 26 29 " clip-rule="nonzero"/></clipPath><clipPath id="f2fc96b187"><path d="M 77.703125 75.179688 L 92.890625 75.179688 C 92.890625 75.179688 69.8125 41.367188 66.554688 37.417969 C 62.363281 32.339844 56.027344 29.109375 48.929688 29.109375 C 36.320312 29.109375 26.09375 39.332031 26.09375 51.949219 C 26.09375 64.5625 36.316406 74.785156 48.929688 74.785156 L 64.84375 74.785156 L 57.445312 62.988281 L 48.992188 62.667969 C 43.066406 62.667969 38.257812 57.863281 38.257812 51.933594 C 38.257812 46.007812 43.066406 41.199219 48.992188 41.199219 C 52.96875 41.199219 56.449219 43.363281 58.300781 46.582031 Z M 77.703125 75.179688 " clip-rule="nonzero"/></clipPath><linearGradient x1="45.923159" gradientTransform="matrix(0.691644, 0, 0, 0.691644, -8.621194, -17.887264)" y1="73.811049" x2="140.59216" gradientUnits="userSpaceOnUse" y2="142.729778" id="f86738a721"><stop stop-opacity="1" stop-color="rgb(0.39978%, 7.099915%, 13.299561%)" offset="0"/><stop stop-opacity="1" stop-color="rgb(0.39978%, 7.099915%, 13.299561%)" offset="0.333203"/><stop stop-opacity="1" stop-color="rgb(0.39978%, 7.099915%, 13.299561%)" offset="0.5"/><stop stop-opacity="1" stop-color="rgb(0.39978%, 7.099915%, 13.299561%)" offset="0.666797"/><stop stop-opacity="1" stop-color="rgb(0.39978%, 7.099915%, 13.299561%)" offset="0.75"/><stop stop-opacity="1" stop-color="rgb(0.39978%, 7.099915%, 13.299561%)" offset="0.875"/><stop stop-opacity="1" stop-color="rgb(0.39978%, 7.099915%, 13.299561%)" offset="0.9375"/><stop stop-opacity="1" stop-color="rgb(0.39978%, 7.099915%, 13.299561%)" offset="0.96875"/><stop stop-opacity="1" stop-color="rgb(0.39978%, 7.099915%, 13.299561%)" offset="0.984375"/><stop stop-opacity="1" stop-color="rgb(0.360107%, 6.407166%, 12.002563%)" offset="0.988281"/><stop stop-opacity="1" stop-color="rgb(0.32196%, 5.714417%, 10.707092%)" offset="0.992188"/><stop stop-opacity="1" stop-color="rgb(0.160217%, 2.856445%, 5.352783%)" offset="0.996094"/><stop stop-opacity="1" stop-color="rgb(0%, 0%, 0%)" offset="1"/></linearGradient></defs><g clip-path="url(#0eb8a1ea8a)"><g clip-path="url(#7b3b39c2cd)"><path fill="#011222" d="M 54.921875 0.398438 L 54.921875 52.847656 L 105.554688 52.847656 L 105.554688 0.398438 Z M 54.921875 0.398438 " fill-opacity="1" fill-rule="nonzero"/></g></g><g clip-path="url(#d57002a26b)"><g clip-path="url(#ee95dd9c56)"><path fill="#011222" d="M 9.996094 30.90625 L 9.996094 44.410156 L 23.5 44.410156 L 23.5 30.90625 Z M 9.996094 30.90625 " fill-opacity="1" fill-rule="nonzero"/></g></g><g clip-path="url(#7f6a338e91)"><g clip-path="url(#f2fc96b187)"><path fill="url(#f86738a721)" d="M 26.09375 29.109375 L 26.09375 74.960938 L 92.890625 74.960938 L 92.890625 29.109375 Z M 26.09375 29.109375 " fill-rule="nonzero"/></g></g><path fill="#011222" d="M 133.269531 13.816406 L 137.816406 13.816406 L 137.816406 61.363281 L 133.269531 61.363281 Z M 133.269531 13.816406 " fill-opacity="1" fill-rule="nonzero"/><path fill="#011222" d="M 347.921875 13.816406 L 352.46875 13.816406 L 352.46875 61.363281 L 347.921875 61.363281 Z M 347.921875 13.816406 " fill-opacity="1" fill-rule="nonzero"/><path fill="#011222" d="M 191.617188 45.917969 L 163.425781 45.917969 C 163.9375 52.96875 169.324219 57.648438 176.691406 57.648438 C 180.796875 57.648438 184.441406 56.175781 187.011719 53.226562 L 189.570312 56.175781 C 186.558594 59.765625 181.882812 61.683594 176.5625 61.683594 C 166.050781 61.683594 158.875 54.507812 158.875 44.507812 C 158.875 34.507812 165.855469 27.398438 175.34375 27.398438 C 184.824219 27.398438 191.679688 34.382812 191.679688 44.507812 C 191.679688 44.894531 191.617188 45.40625 191.617188 45.917969 Z M 163.425781 42.519531 L 187.328125 42.519531 C 186.753906 35.917969 181.945312 31.308594 175.34375 31.308594 C 168.804688 31.308594 164 35.917969 163.425781 42.519531 Z M 163.425781 42.519531 " fill-opacity="1" fill-rule="nonzero"/><path fill="#011222" d="M 237.214844 40.472656 L 237.214844 61.363281 L 232.855469 61.363281 L 232.855469 56.113281 C 230.808594 59.570312 226.835938 61.6875 221.257812 61.6875 C 213.632812 61.6875 208.953125 57.71875 208.953125 51.882812 C 208.953125 46.695312 212.289062 42.332031 221.964844 42.332031 L 232.660156 42.332031 L 232.660156 40.285156 C 232.660156 34.519531 229.394531 31.378906 223.113281 31.378906 C 218.753906 31.378906 214.65625 32.914062 211.902344 35.351562 L 209.851562 31.953125 C 213.25 29.066406 218.246094 27.40625 223.570312 27.40625 C 232.28125 27.398438 237.214844 31.753906 237.214844 40.472656 Z M 232.660156 51.234375 L 232.660156 45.726562 L 222.089844 45.726562 C 215.554688 45.726562 213.4375 48.285156 213.4375 51.746094 C 213.4375 55.65625 216.578125 58.089844 221.964844 58.089844 C 227.089844 58.089844 230.871094 55.65625 232.660156 51.234375 Z M 232.660156 51.234375 " fill-opacity="1" fill-rule="nonzero"/><path fill="#011222" d="M 289.59375 41.816406 L 289.59375 61.355469 L 285.046875 61.355469 L 285.046875 42.265625 C 285.046875 35.152344 281.332031 31.496094 274.921875 31.496094 C 267.683594 31.496094 263.132812 35.980469 263.132812 43.667969 L 263.132812 61.355469 L 258.585938 61.355469 L 258.585938 27.65625 L 262.945312 27.65625 L 262.945312 33.871094 C 265.378906 29.765625 269.925781 27.398438 275.761719 27.398438 C 283.953125 27.398438 289.59375 32.140625 289.59375 41.816406 Z M 289.59375 41.816406 " fill-opacity="1" fill-rule="nonzero"/><path fill="#011222" d="M 323.984375 13.492188 C 326.484375 13.492188 329.050781 14.195312 330.710938 15.609375 L 329.175781 19.007812 C 327.894531 17.917969 326.097656 17.339844 324.179688 17.339844 C 320.269531 17.339844 318.222656 19.519531 318.222656 23.683594 L 318.222656 27.65625 L 328.601562 27.65625 L 328.601562 31.503906 L 318.347656 31.503906 L 318.347656 61.363281 L 313.800781 61.363281 L 313.800781 31.496094 L 307.78125 31.496094 L 307.78125 27.648438 L 313.800781 27.648438 L 313.800781 23.484375 C 313.800781 17.464844 317.382812 13.492188 323.984375 13.492188 Z M 323.984375 13.492188 " fill-opacity="1" fill-rule="nonzero"/><path fill="#011222" d="M 373.507812 44.507812 C 373.507812 34.507812 380.8125 27.398438 390.683594 27.398438 C 400.550781 27.398438 407.789062 34.515625 407.789062 44.507812 C 407.789062 54.5 400.550781 61.683594 390.683594 61.683594 C 380.808594 61.683594 373.507812 54.507812 373.507812 44.507812 Z M 403.171875 44.507812 C 403.171875 36.625 397.851562 31.371094 390.675781 31.371094 C 383.5 31.371094 378.113281 36.625 378.113281 44.507812 C 378.113281 52.390625 383.5 57.640625 390.675781 57.640625 C 397.851562 57.640625 403.171875 52.390625 403.171875 44.507812 Z M 403.171875 44.507812 " fill-opacity="1" fill-rule="nonzero"/><path fill="#011222" d="M 475.964844 27.65625 L 463.210938 61.363281 L 458.921875 61.363281 L 448.285156 33.746094 L 437.648438 61.363281 L 433.359375 61.363281 L 420.667969 27.65625 L 425.027344 27.65625 L 435.601562 56.296875 L 446.429688 27.65625 L 450.339844 27.65625 L 461.109375 56.296875 L 471.804688 27.65625 Z M 475.964844 27.65625 " fill-opacity="1" fill-rule="nonzero"/></svg>