<svg xmlns="http://www.w3.org/2000/svg" xmlns:xlink="http://www.w3.org/1999/xlink" width="650" zoomAndPan="magnify" viewBox="0 0 487.5 74.999997" height="100" preserveAspectRatio="xMidYMid meet" version="1.0"><defs><clipPath id="f4a874e67e"><path d="M 54 1 L 106 1 L 106 54 L 54 54 Z M 54 1 " clip-rule="nonzero"/></clipPath><clipPath id="067da1027e"><path d="M 69.722656 1.191406 L 105.554688 53.636719 L 91.011719 53.636719 L 54.921875 1.191406 Z M 69.722656 1.191406 " clip-rule="nonzero"/></clipPath><clipPath id="239f2f9367"><path d="M 9 31 L 24 31 L 24 46 L 9 46 Z M 9 31 " clip-rule="nonzero"/></clipPath><clipPath id="cc6e8dc817"><path d="M 23.5 38.449219 C 23.5 38.890625 23.457031 39.332031 23.367188 39.765625 C 23.28125 40.199219 23.15625 40.621094 22.984375 41.03125 C 22.816406 41.441406 22.605469 41.832031 22.359375 42.199219 C 22.113281 42.566406 21.835938 42.910156 21.523438 43.222656 C 21.207031 43.535156 20.867188 43.816406 20.5 44.0625 C 20.128906 44.308594 19.742188 44.515625 19.332031 44.683594 C 18.921875 44.855469 18.5 44.984375 18.066406 45.070312 C 17.628906 45.15625 17.191406 45.199219 16.75 45.199219 C 16.304688 45.199219 15.867188 45.15625 15.429688 45.070312 C 14.996094 44.984375 14.574219 44.855469 14.164062 44.683594 C 13.753906 44.515625 13.367188 44.308594 12.996094 44.0625 C 12.628906 43.816406 12.289062 43.535156 11.976562 43.222656 C 11.660156 42.910156 11.382812 42.566406 11.136719 42.199219 C 10.890625 41.832031 10.679688 41.441406 10.511719 41.03125 C 10.34375 40.621094 10.214844 40.199219 10.128906 39.765625 C 10.042969 39.332031 9.996094 38.890625 9.996094 38.449219 C 9.996094 38.003906 10.042969 37.566406 10.128906 37.132812 C 10.214844 36.695312 10.34375 36.273438 10.511719 35.867188 C 10.679688 35.457031 10.890625 35.066406 11.136719 34.699219 C 11.382812 34.328125 11.660156 33.988281 11.976562 33.675781 C 12.289062 33.363281 12.628906 33.082031 12.996094 32.835938 C 13.367188 32.589844 13.753906 32.382812 14.164062 32.210938 C 14.574219 32.042969 14.996094 31.914062 15.429688 31.828125 C 15.867188 31.742188 16.304688 31.699219 16.75 31.699219 C 17.191406 31.699219 17.628906 31.742188 18.066406 31.828125 C 18.5 31.914062 18.921875 32.042969 19.332031 32.210938 C 19.742188 32.382812 20.128906 32.589844 20.5 32.835938 C 20.867188 33.082031 21.207031 33.363281 21.523438 33.675781 C 21.835938 33.988281 22.113281 34.328125 22.359375 34.699219 C 22.605469 35.066406 22.816406 35.457031 22.984375 35.867188 C 23.15625 36.273438 23.28125 36.695312 23.367188 37.132812 C 23.457031 37.566406 23.5 38.003906 23.5 38.449219 Z M 23.5 38.449219 " clip-rule="nonzero"/></clipPath><clipPath id="627624ac0e"><path d="M 26 29 L 93 29 L 93 74.960938 L 26 74.960938 Z M 26 29 " clip-rule="nonzero"/></clipPath><clipPath id="d59062dda7"><path d="M 77.703125 75.96875 L 92.890625 75.96875 C 92.890625 75.96875 69.8125 42.15625 66.554688 38.207031 C 62.363281 33.128906 56.027344 29.898438 48.929688 29.898438 C 36.320312 29.898438 26.09375 40.121094 26.09375 52.738281 C 26.09375 65.355469 36.316406 75.574219 48.929688 75.574219 L 64.84375 75.574219 L 57.445312 63.777344 L 48.992188 63.457031 C 43.066406 63.457031 38.257812 58.652344 38.257812 52.722656 C 38.257812 46.796875 43.066406 41.988281 48.992188 41.988281 C 52.96875 41.988281 56.449219 44.15625 58.300781 47.371094 Z M 77.703125 75.96875 " clip-rule="nonzero"/></clipPath><linearGradient x1="45.923161" gradientTransform="matrix(0.691644, 0, 0, 0.691644, -8.621194, -17.097318)" y1="73.811051" x2="140.048712" gradientUnits="userSpaceOnUse" y2="142.334149" id="05fe07db46"><stop stop-opacity="1" stop-color="rgb(100%, 100%, 100%)" offset="0"/><stop stop-opacity="1" stop-color="rgb(100%, 100%, 100%)" offset="0.329353"/><stop stop-opacity="1" stop-color="rgb(100%, 100%, 100%)" offset="0.5"/><stop stop-opacity="1" stop-color="rgb(100%, 100%, 100%)" offset="0.670647"/><stop stop-opacity="1" stop-color="rgb(100%, 100%, 100%)" offset="0.75"/><stop stop-opacity="1" stop-color="rgb(100%, 100%, 100%)" offset="0.875"/><stop stop-opacity="1" stop-color="rgb(100%, 100%, 100%)" offset="0.9375"/><stop stop-opacity="1" stop-color="rgb(100%, 100%, 100%)" offset="0.96875"/><stop stop-opacity="1" stop-color="rgb(100%, 100%, 100%)" offset="0.984375"/><stop stop-opacity="1" stop-color="rgb(100%, 100%, 100%)" offset="0.992188"/><stop stop-opacity="1" stop-color="rgb(79.168701%, 79.168701%, 79.168701%)" offset="0.996094"/><stop stop-opacity="1" stop-color="rgb(58.338928%, 58.338928%, 58.338928%)" offset="1"/></linearGradient></defs><g clip-path="url(#f4a874e67e)"><g clip-path="url(#067da1027e)"><path fill="#ffffff" d="M 54.921875 1.191406 L 54.921875 53.636719 L 105.554688 53.636719 L 105.554688 1.191406 Z M 54.921875 1.191406 " fill-opacity="1" fill-rule="nonzero"/></g></g><g clip-path="url(#239f2f9367)"><g clip-path="url(#cc6e8dc817)"><path fill="#ffffff" d="M 9.996094 31.699219 L 9.996094 45.199219 L 23.5 45.199219 L 23.5 31.699219 Z M 9.996094 31.699219 " fill-opacity="1" fill-rule="nonzero"/></g></g><g clip-path="url(#627624ac0e)"><g clip-path="url(#d59062dda7)"><path fill="url(#05fe07db46)" d="M 26.09375 29.898438 L 26.09375 74.960938 L 92.890625 74.960938 L 92.890625 29.898438 Z M 26.09375 29.898438 " fill-rule="nonzero"/></g></g><path fill="#ffffff" d="M 133.269531 14.605469 L 137.816406 14.605469 L 137.816406 62.152344 L 133.269531 62.152344 Z M 133.269531 14.605469 " fill-opacity="1" fill-rule="nonzero"/><path fill="#ffffff" d="M 347.921875 14.605469 L 352.46875 14.605469 L 352.46875 62.152344 L 347.921875 62.152344 Z M 347.921875 14.605469 " fill-opacity="1" fill-rule="nonzero"/><path fill="#ffffff" d="M 191.617188 46.707031 L 163.425781 46.707031 C 163.9375 53.761719 169.324219 58.4375 176.691406 58.4375 C 180.796875 58.4375 184.441406 56.964844 187.011719 54.015625 L 189.570312 56.964844 C 186.558594 60.554688 181.882812 62.472656 176.5625 62.472656 C 166.050781 62.472656 158.875 55.296875 158.875 45.296875 C 158.875 35.296875 165.855469 28.191406 175.34375 28.191406 C 184.824219 28.191406 191.679688 35.171875 191.679688 45.296875 C 191.679688 45.683594 191.617188 46.195312 191.617188 46.707031 Z M 163.425781 43.3125 L 187.328125 43.3125 C 186.753906 36.707031 181.945312 32.101562 175.34375 32.101562 C 168.804688 32.101562 164 36.707031 163.425781 43.3125 Z M 163.425781 43.3125 " fill-opacity="1" fill-rule="nonzero"/><path fill="#ffffff" d="M 237.214844 41.261719 L 237.214844 62.152344 L 232.855469 62.152344 L 232.855469 56.902344 C 230.808594 60.363281 226.835938 62.480469 221.257812 62.480469 C 213.632812 62.480469 208.953125 58.507812 208.953125 52.671875 C 208.953125 47.484375 212.289062 43.125 221.964844 43.125 L 232.660156 43.125 L 232.660156 41.074219 C 232.660156 35.3125 229.394531 32.167969 223.113281 32.167969 C 218.753906 32.167969 214.65625 33.707031 211.902344 36.140625 L 209.851562 32.742188 C 213.25 29.859375 218.246094 28.195312 223.570312 28.195312 C 232.28125 28.191406 237.214844 32.542969 237.214844 41.261719 Z M 232.660156 52.023438 L 232.660156 46.515625 L 222.089844 46.515625 C 215.554688 46.515625 213.4375 49.074219 213.4375 52.535156 C 213.4375 56.445312 216.578125 58.878906 221.964844 58.878906 C 227.089844 58.878906 230.871094 56.445312 232.660156 52.023438 Z M 232.660156 52.023438 " fill-opacity="1" fill-rule="nonzero"/><path fill="#ffffff" d="M 289.59375 42.605469 L 289.59375 62.148438 L 285.046875 62.148438 L 285.046875 43.054688 C 285.046875 35.941406 281.332031 32.285156 274.921875 32.285156 C 267.683594 32.285156 263.132812 36.769531 263.132812 44.460938 L 263.132812 62.148438 L 258.585938 62.148438 L 258.585938 28.445312 L 262.945312 28.445312 L 262.945312 34.660156 C 265.378906 30.558594 269.925781 28.191406 275.761719 28.191406 C 283.953125 28.191406 289.59375 32.929688 289.59375 42.605469 Z M 289.59375 42.605469 " fill-opacity="1" fill-rule="nonzero"/><path fill="#ffffff" d="M 323.984375 14.28125 C 326.484375 14.28125 329.050781 14.988281 330.710938 16.398438 L 329.175781 19.796875 C 327.894531 18.710938 326.097656 18.128906 324.179688 18.128906 C 320.269531 18.128906 318.222656 20.308594 318.222656 24.472656 L 318.222656 28.445312 L 328.601562 28.445312 L 328.601562 32.292969 L 318.347656 32.292969 L 318.347656 62.152344 L 313.800781 62.152344 L 313.800781 32.285156 L 307.78125 32.285156 L 307.78125 28.4375 L 313.800781 28.4375 L 313.800781 24.273438 C 313.800781 18.253906 317.382812 14.28125 323.984375 14.28125 Z M 323.984375 14.28125 " fill-opacity="1" fill-rule="nonzero"/><path fill="#ffffff" d="M 373.507812 45.296875 C 373.507812 35.296875 380.8125 28.191406 390.683594 28.191406 C 400.550781 28.191406 407.789062 35.304688 407.789062 45.296875 C 407.789062 55.289062 400.550781 62.472656 390.683594 62.472656 C 380.808594 62.472656 373.507812 55.296875 373.507812 45.296875 Z M 403.171875 45.296875 C 403.171875 37.414062 397.851562 32.164062 390.675781 32.164062 C 383.5 32.164062 378.113281 37.414062 378.113281 45.296875 C 378.113281 53.179688 383.5 58.429688 390.675781 58.429688 C 397.851562 58.429688 403.171875 53.179688 403.171875 45.296875 Z M 403.171875 45.296875 " fill-opacity="1" fill-rule="nonzero"/><path fill="#ffffff" d="M 475.964844 28.445312 L 463.210938 62.152344 L 458.921875 62.152344 L 448.285156 34.535156 L 437.648438 62.152344 L 433.359375 62.152344 L 420.667969 28.445312 L 425.027344 28.445312 L 435.601562 57.089844 L 446.429688 28.445312 L 450.339844 28.445312 L 461.109375 57.089844 L 471.804688 28.445312 Z M 475.964844 28.445312 " fill-opacity="1" fill-rule="nonzero"/></svg>