<svg width="465" height="151" viewBox="0 0 465 151" fill="none" xmlns="http://www.w3.org/2000/svg">
<g id="Group 6">
<g id="Group">
<path id="Vector" d="M243.846 71.1314V96.4226H234.328V91.1813C231.927 94.925 227.209 97.0049 220.836 97.0049C210.986 97.0049 204.861 91.5973 204.861 84.0265C204.861 76.8718 209.662 71.1314 222.74 71.1314H233.831V70.4658C233.831 64.559 230.272 61.0648 223.153 61.0648C218.353 61.0648 213.304 62.6455 210.158 65.3909L206.185 58.0698C210.738 54.4925 217.442 52.7454 224.395 52.7454C236.645 52.8286 243.846 58.7354 243.846 71.1314ZM233.748 82.945V77.9533H223.402C216.532 77.9533 214.711 80.5324 214.711 83.6938C214.711 87.3543 217.773 89.6838 222.905 89.6838C227.789 89.6838 232.093 87.4375 233.748 82.945Z" fill="#0085FF"/>
<path id="Vector_2" d="M279.107 62.7288C274.886 60.6489 269.588 60.1497 267.105 60.1497C260.98 60.1497 258.083 62.1464 258.083 64.975C258.083 73.7105 284.653 66.8053 284.653 83.6938C284.653 91.7637 277.286 97.005 265.202 97.005C258 97.005 250.882 94.9251 246.992 92.1797L250.882 84.5258C254.69 87.0216 260.484 88.8519 265.864 88.8519C272.237 88.8519 274.886 87.1048 274.886 84.1098C274.886 75.8735 248.316 82.7787 248.316 65.5574C248.316 57.4043 255.6 52.0798 267.188 52.0798C272.072 52.0798 279.024 52.9118 285.232 57.1547L279.107 62.7288Z" fill="#0085FF"/>
<path id="Vector_3" d="M293.675 77.371L319.583 53.2445H331.667L313.706 71.381L333.323 96.4226H321.073L306.174 77.8701L298.724 85.0249V96.4226H288.626V72.4625L293.675 77.371ZM288.626 58.7354V36.4392H298.724V60.4825L294.254 64.6422L288.626 58.7354Z" fill="#0085FF"/>
<path id="Vector_4" d="M334.979 40.0998C334.979 36.6888 337.71 34.0266 341.435 34.0266C345.159 34.0266 347.891 36.5225 347.891 39.8502C347.891 43.4276 345.242 46.173 341.435 46.173C337.71 46.173 334.979 43.5108 334.979 40.0998ZM336.386 53.2446H346.484V96.4226H336.386V53.2446Z" fill="#0085FF"/>
<path id="Vector_5" d="M353.188 34.0266H363.204V96.4226H353.188V34.0266Z" fill="#0085FF"/>
<path id="Vector_6" d="M368.667 40.0998C368.667 36.6888 371.398 34.0266 375.123 34.0266C378.848 34.0266 381.579 36.5225 381.579 39.8502C381.579 43.4276 378.93 46.173 375.123 46.173C371.398 46.173 368.667 43.5108 368.667 40.0998ZM370.074 53.2446H380.172V96.4226H370.074V53.2446Z" fill="#0085FF"/>
<path id="Vector_7" d="M203.536 94.0931C201.136 96.0066 197.494 97.0049 193.852 97.0049C184.416 97.0049 179.036 91.93 179.036 82.3627V61.3976H171.917V53.2445H179.036V43.3444H189.051V53.2445H200.557V61.3976H189.051V82.1131C189.051 86.356 191.121 88.6023 195.011 88.6023C197.08 88.6023 199.149 88.0199 200.639 86.772L203.536 94.0931Z" fill="#0085FF"/>
<path id="Vector_8" d="M416.923 94.0931C414.522 96.0066 410.88 97.0049 407.238 97.0049C397.802 97.0049 392.422 91.93 392.422 82.3627V61.3976H385.304V53.2445H392.422V43.3444H402.438V53.2445H413.943V61.3976H402.438V82.1131C402.438 86.356 404.507 88.6023 408.397 88.6023C410.466 88.6023 412.536 88.0199 414.026 86.772L416.923 94.0931Z" fill="#0085FF"/>
<path id="Vector_9" d="M464.931 53.2446L444.817 99.9168C440.844 109.734 435.381 112.729 428.263 112.729C423.959 112.729 419.489 111.231 416.757 108.735L420.813 101.331C422.717 103.161 425.448 104.326 428.18 104.326C431.739 104.326 433.808 102.662 435.712 98.3361L436.457 96.6722L417.668 53.2446H428.097L441.589 85.1914L455.246 53.2446H464.931Z" fill="#0085FF"/>
</g>
<path id="Vector_10" d="M138.891 93.2612C111.411 124.792 73.9982 144.26 34.4332 149.834C29.2185 150.582 23.6728 149.501 18.872 146.423C14.154 143.428 10.9259 139.018 9.27046 134.11C-3.72475 96.0067 -3.31089 53.7438 12.0847 14.9751C12.6641 13.5607 13.3263 12.2296 14.154 10.8985C19.2031 2.91183 28.2253 -0.915124 36.9163 0.249601C57.4438 4.15975 77.6402 11.8969 96.3466 23.7937C113.48 34.6922 127.717 47.837 139.471 63.0616C145.596 70.6323 146.589 81.5308 141.126 90.2662C140.464 91.3478 139.719 92.3461 138.891 93.2612Z" fill="#006EFF"/>
<path id="Vector_11" d="M132.27 99.8335C103.3 126.622 66.3005 141.015 28.722 142.18C23.7557 142.346 18.7066 140.765 14.4852 137.438C10.3466 134.11 7.78069 129.7 6.78742 124.875C-1.57256 87.9367 3.06268 48.336 21.4381 13.5606C22.1003 12.3127 22.8452 11.0648 23.7557 9.90005C29.2186 2.99489 38.0753 0.249466 46.1041 2.32933C64.9762 8.06977 83.0205 17.4708 99.4093 30.5323C114.391 42.5124 126.393 56.2395 135.829 71.7137C140.795 79.4508 140.63 89.7669 134.587 97.3377C133.925 98.2528 133.098 99.0847 132.27 99.8335Z" fill="#0092FF"/>
<path id="Vector_12" d="M123.744 107.238C93.6979 128.453 57.6921 137.188 22.7623 133.611C18.127 133.112 13.6573 131.032 10.1809 127.454C6.78726 123.877 4.96627 119.468 4.55241 114.892C1.24153 79.6173 10.3465 43.594 31.6189 13.6439C32.3638 12.5624 33.2743 11.5641 34.2676 10.5657C40.2272 4.82531 48.7527 3.411 55.9539 6.32281C72.6738 13.9767 88.3177 24.8752 101.81 39.0183C114.225 51.9967 123.579 66.1398 130.531 81.6972C134.173 89.4343 132.766 99.0017 126.227 105.241C125.4 105.907 124.572 106.572 123.744 107.238Z" fill="#00B1FF"/>
<path id="Vector_13" d="M114.226 113.394C83.7656 128.453 49.6635 131.364 18.2101 123.211C14.0715 122.13 10.264 119.551 7.53255 115.807C4.88384 112.063 3.89058 107.737 4.13889 103.494C6.2082 70.7987 19.5345 39.1015 43.2073 14.8087C44.035 13.8935 45.0283 13.0616 46.0215 12.396C52.2295 7.9867 60.2583 7.9035 66.4662 11.5641C80.703 20.9651 93.4499 33.1115 103.796 47.9201C113.315 61.4809 119.937 75.7904 123.993 91.015C126.228 98.5857 123.579 107.155 116.792 111.98C115.964 112.479 115.136 112.978 114.226 113.394Z" fill="#00D4FF"/>
<path id="Vector_14" d="M105.121 117.637C75.0743 127.371 43.2898 125.291 15.4784 113.477C11.7536 111.897 8.60831 109.068 6.70455 105.158C4.8008 101.331 4.38694 97.2545 5.29743 93.4276C11.5881 63.7271 28.1425 36.4392 53.1397 17.3044C54.0502 16.6389 55.0434 15.9733 56.0367 15.4742C62.4101 12.2296 69.7768 13.3111 74.9087 17.4708C86.7451 28.0366 96.7605 40.9317 104.293 55.99C111.163 69.8003 115.301 83.8602 117.04 98.3361C118.116 105.657 114.474 113.062 107.604 116.639C106.859 117.055 105.948 117.388 105.121 117.637Z" fill="#00EDF5"/>
<path id="Vector_15" d="M97.2571 120.299C68.2042 125.624 38.9028 119.883 14.4851 105.491C11.257 103.577 8.69105 100.582 7.28393 96.6722C5.95957 92.9284 6.12512 89.0182 7.3667 85.6073C16.8027 58.7354 35.5092 35.4409 61.003 20.7154C61.9135 20.1331 62.9067 19.7171 63.9 19.3843C70.1907 17.1381 76.8952 19.0515 81.1994 23.544C90.8837 34.7753 98.6643 48.0033 103.879 62.8951C108.597 76.539 110.749 90.0998 110.666 103.744C110.749 110.649 106.528 117.138 99.6575 119.551C98.9126 119.967 98.0849 120.133 97.2571 120.299Z" fill="#68F5DE"/>
<path id="Vector_16" d="M90.5524 121.131C62.741 123.045 36.0056 114.642 14.6504 98.5857C11.8362 96.4226 9.6841 93.3444 8.85638 89.6006C8.02865 85.9401 8.52529 82.3627 10.098 79.2013C21.686 55.0748 41.6341 35.1913 67.1279 24.1264C68.0384 23.7104 69.0317 23.3777 70.0249 23.1281C76.15 21.7138 82.1924 24.2096 85.7516 28.8685C93.615 40.4326 99.5745 53.6605 102.803 68.1364C105.782 81.4476 106.362 94.3427 104.872 107.072C104.21 113.561 99.5745 119.135 92.9528 120.715C92.1251 120.965 91.2973 121.048 90.5524 121.131Z" fill="#9DFFDE"/>
<path id="Vector_17" d="M83.8481 121.131C57.6921 119.8 33.6882 108.902 15.6439 91.5141C13.2435 89.1847 11.6708 86.1065 11.257 82.5291C10.9259 79.0349 11.7536 75.7071 13.5746 73.0449C27.0664 51.9135 47.925 35.6905 72.8394 28.203C73.7499 27.9534 74.6604 27.7038 75.6536 27.6206C81.5305 27.0382 86.9106 29.9501 89.7249 34.7754C95.7673 46.4226 99.8231 59.401 101.23 73.2945C102.555 86.0233 101.644 98.0865 98.747 109.817C97.4227 115.807 92.4564 120.466 86.0829 121.131C85.338 121.131 84.5103 121.215 83.8481 121.131Z" fill="#BBFFDE"/>
<path id="Vector_18" d="M77.0608 120.466C53.0569 116.057 32.0328 103.078 17.3822 84.7753C15.3957 82.3627 14.3196 79.2845 14.4024 75.8735C14.4852 72.6289 15.7267 69.6339 17.7133 67.3045C32.7778 49.3344 53.9674 36.772 78.0541 32.8619C78.8818 32.6955 79.7923 32.6123 80.7028 32.6955C86.1658 32.8619 90.8838 36.2729 92.8703 41.0149C97.0917 52.579 99.2437 65.0582 98.9954 78.1198C98.7471 90.0998 96.4295 101.165 92.3737 111.73C90.4699 117.138 85.2553 120.882 79.2957 120.715C78.3852 120.632 77.723 120.549 77.0608 120.466Z" fill="white"/>
</g>
</svg>
