<svg width="675" height="150" viewBox="0 0 675 150" fill="none" xmlns="http://www.w3.org/2000/svg">
<g id="Taskility-logo-gris">
<g id="Group 8">
<path id="Vector" d="M303.774 73.4287V115.981H287.791V107.163C283.761 113.461 275.839 116.961 265.137 116.961C248.598 116.961 238.313 107.862 238.313 95.1248C238.313 83.087 246.374 73.4287 268.334 73.4287H286.958V72.3089C286.958 62.3707 280.981 56.4918 269.029 56.4918C260.968 56.4918 252.49 59.1513 247.208 63.7705L240.537 51.4528C248.181 45.4338 259.439 42.4944 271.113 42.4944C291.683 42.6344 303.774 52.5725 303.774 73.4287ZM286.819 93.3051V84.9066H269.446C257.91 84.9066 254.852 89.2458 254.852 94.5649C254.852 100.724 259.995 104.643 268.612 104.643C276.812 104.643 284.039 100.864 286.819 93.3051Z" fill="#4F4F4F"/>
<path id="Vector_2" d="M362.982 59.291C355.894 55.7916 346.999 54.9518 342.83 54.9518C332.545 54.9518 327.68 58.3112 327.68 63.0703C327.68 77.7676 372.294 66.1497 372.294 94.5646C372.294 108.142 359.924 116.96 339.633 116.96C327.541 116.96 315.589 113.461 309.057 108.842L315.589 95.9643C321.982 100.164 331.711 103.243 340.745 103.243C351.446 103.243 355.894 100.304 355.894 95.2644C355.894 81.407 311.28 93.0248 311.28 64.0501C311.28 50.3326 323.511 41.3743 342.968 41.3743C351.168 41.3743 362.843 42.774 373.267 49.9127L362.982 59.291Z" fill="#4F4F4F"/>
<path id="Vector_3" d="M387.443 83.9269L430.945 43.3343H451.236L421.077 73.8487L454.016 115.981H433.446L408.429 84.7667L395.921 96.8045V115.981H378.965V75.6684L387.443 83.9269ZM378.965 52.5726V15.0594H395.921V55.5121L388.416 62.5108L378.965 52.5726Z" fill="#4F4F4F"/>
<path id="Vector_4" d="M456.795 21.2181C456.795 15.4792 461.381 11 467.636 11C473.89 11 478.476 15.1992 478.476 20.7982C478.476 26.8171 474.029 31.4363 467.636 31.4363C461.381 31.4363 456.795 26.9571 456.795 21.2181ZM459.158 43.3341H476.114V115.981H459.158V43.3341Z" fill="#4F4F4F"/>
<path id="Vector_5" d="M487.372 11H504.189V115.981H487.372V11Z" fill="#4F4F4F"/>
<path id="Vector_6" d="M513.362 21.2181C513.362 15.4792 517.948 11 524.203 11C530.457 11 535.043 15.1992 535.043 20.7982C535.043 26.8171 530.596 31.4363 524.203 31.4363C517.948 31.4363 513.362 26.9571 513.362 21.2181ZM515.725 43.3341H532.681V115.981H515.725V43.3341Z" fill="#4F4F4F"/>
<path id="Vector_7" d="M236.092 112.062C232.061 115.281 225.946 116.961 219.831 116.961C203.986 116.961 194.953 108.423 194.953 92.3255V57.0519H183V43.3345H194.953V26.6775H211.769V43.3345H231.088V57.0519H211.769V91.9056C211.769 99.0443 215.244 102.824 221.776 102.824C225.251 102.824 228.725 101.844 231.227 99.7442L236.092 112.062Z" fill="#4F4F4F"/>
<path id="Vector_8" d="M594.389 112.062C590.359 115.281 584.244 116.961 578.128 116.961C562.284 116.961 553.25 108.423 553.25 92.3255V57.0519H541.298V43.3345H553.25V26.6775H570.067V43.3345H589.386V57.0519H570.067V91.9056C570.067 99.0443 573.542 102.824 580.074 102.824C583.549 102.824 587.023 101.844 589.525 99.7442L594.389 112.062Z" fill="#4F4F4F"/>
<path id="Vector_9" d="M675 43.3342L641.227 121.86C634.556 138.377 625.383 143.416 613.431 143.416C606.203 143.416 598.698 140.896 594.112 136.697L600.922 124.239C604.119 127.319 608.705 129.279 613.292 129.279C619.268 129.279 622.742 126.479 625.939 119.2L627.19 116.401L595.641 43.3342H613.153L635.807 97.0844L658.739 43.3342H675Z" fill="#4F4F4F"/>
</g>
<g id="Group 9">
<path id="Vector_10" d="M138.599 93.2059C111.177 124.733 73.844 144.198 34.3632 149.772C29.1597 150.52 23.6258 149.439 18.8352 146.361C14.1273 143.366 10.906 138.958 9.25413 134.05C-3.71341 95.951 -3.30043 53.6931 12.0624 14.9289C12.6406 13.5147 13.3013 12.1838 14.1273 10.8528C19.1656 2.86706 28.1686 -0.959446 36.8411 0.205144C57.3249 4.11484 77.4782 11.851 96.1449 23.7465C113.242 34.6437 127.449 47.7869 139.177 63.0098C145.289 70.5796 146.281 81.4768 140.829 90.2113C140.168 91.2927 139.425 92.2909 138.599 93.2059Z" fill="#006EFF"/>
<path id="Vector_11" d="M131.99 99.7775C103.082 126.563 66.1616 140.954 28.6631 142.119C23.7074 142.285 18.669 140.704 14.4566 137.377C10.3268 134.05 7.76637 129.641 6.77522 124.816C-1.56695 87.882 3.05841 48.286 21.3947 13.5147C22.0554 12.2669 22.7988 11.0191 23.7074 9.85453C29.1587 2.95018 37.9964 0.205074 46.0082 2.2847C64.8401 8.02446 82.8459 17.4244 99.1999 30.4844C114.15 42.463 126.126 56.1886 135.542 71.661C140.498 79.3972 140.333 89.7121 134.303 97.2819C133.642 98.197 132.816 99.0288 131.99 99.7775Z" fill="#0092FF"/>
<path id="Vector_12" d="M123.483 107.181C93.501 128.393 57.5719 137.128 22.7165 133.551C18.0911 133.051 13.6309 130.972 10.1619 127.395C6.77547 123.818 4.95837 119.409 4.54539 114.834C1.24156 79.5635 10.3271 43.5445 31.5542 13.5979C32.2976 12.5165 33.2061 11.5182 34.1973 10.52C40.1442 4.78027 48.6515 3.36612 55.8374 6.2776C72.5217 13.9306 88.1323 24.8278 101.595 38.9693C113.985 51.9461 123.318 66.0876 130.256 81.6432C133.89 89.3794 132.486 98.9456 125.961 105.185C125.135 105.85 124.309 106.515 123.483 107.181Z" fill="#00B1FF"/>
<path id="Vector_13" d="M113.985 113.337C83.5894 128.393 49.5599 131.305 18.1735 123.152C14.0437 122.071 10.2443 119.492 7.51865 115.749C4.87559 112.006 3.88444 107.68 4.13222 103.438C6.19712 70.7459 19.495 39.0524 43.1174 14.7624C43.9434 13.8474 44.9345 13.0156 45.9257 12.3501C52.1204 7.94128 60.1322 7.85809 66.3268 11.5182C80.5333 20.9181 93.2531 33.0631 103.578 47.87C113.076 61.4292 119.684 75.737 123.731 90.9599C125.961 98.5297 123.318 107.098 116.545 111.922C115.719 112.422 114.893 112.921 113.985 113.337Z" fill="#00D4FF"/>
<path id="Vector_14" d="M104.899 117.579C74.9166 127.312 43.1998 125.232 15.4477 113.42C11.7309 111.839 8.59222 109.011 6.69251 105.101C4.79281 101.275 4.37983 97.1987 5.28839 93.3722C11.5657 63.6752 28.0848 36.3905 53.0287 17.258C53.9373 16.5925 54.9284 15.927 55.9196 15.4279C62.2795 12.1837 69.6305 13.2651 74.7514 17.4244C86.5626 27.9888 96.5567 40.8825 104.073 55.939C110.928 69.7477 115.058 83.8059 116.793 98.2801C117.866 105.6 114.232 113.004 107.377 116.581C106.633 116.997 105.725 117.329 104.899 117.579Z" fill="#00EDF5"/>
<path id="Vector_15" d="M97.0533 120.241C68.0622 125.565 38.8233 119.825 14.4575 105.434C11.2363 103.521 8.67583 100.526 7.27171 96.6163C5.95017 92.8729 6.11537 88.9633 7.3543 85.5527C16.7702 58.6839 35.4369 35.3921 60.8764 20.6684C61.7849 20.0861 62.7761 19.6702 63.7672 19.3375C70.0445 17.0915 76.7348 19.0047 81.0297 23.4967C90.6934 34.7267 98.4574 47.9531 103.661 62.8432C108.369 76.4855 110.516 90.0447 110.434 103.687C110.516 110.591 106.304 117.08 99.4486 119.492C98.7052 119.908 97.8793 120.074 97.0533 120.241Z" fill="#68F5DE"/>
<path id="Vector_16" d="M90.3624 121.073C62.6102 122.986 35.9318 114.584 14.6221 98.5296C11.8138 96.3668 9.66635 93.2889 8.8404 89.5456C8.01444 85.8854 8.51001 82.3085 10.0793 79.1475C21.6427 55.0238 41.5483 35.1426 66.9878 24.079C67.8964 23.6631 68.8875 23.3304 69.8787 23.0808C75.9908 21.6667 82.0202 24.1622 85.5719 28.8206C93.4185 40.3833 99.3654 53.6097 102.587 68.0839C105.56 81.3935 106.138 94.2871 104.651 107.014C103.991 113.503 99.3654 119.076 92.7577 120.657C91.9317 120.906 91.1058 120.99 90.3624 121.073Z" fill="#9DFFDE"/>
<path id="Vector_17" d="M83.6723 121.073C57.5721 119.742 33.6193 108.845 15.6134 91.459C13.2181 89.1298 11.6488 86.052 11.2358 82.475C10.9055 78.9813 11.7314 75.6539 13.5485 72.992C27.0116 51.863 47.8258 35.6419 72.6871 28.1553C73.5956 27.9057 74.5042 27.6562 75.4953 27.573C81.3596 26.9907 86.7284 29.9022 89.5366 34.7269C95.5661 46.3728 99.6133 59.3496 101.017 73.2415C102.339 85.9688 101.43 98.0306 98.5396 109.76C97.218 115.749 92.2623 120.407 85.9024 121.073C85.159 121.073 84.3331 121.156 83.6723 121.073Z" fill="#BBFFDE"/>
<path id="Vector_18" d="M76.8998 120.407C52.947 115.998 31.9677 103.022 17.3482 84.7209C15.3659 82.3086 14.2922 79.2307 14.3748 75.8201C14.4574 72.5759 15.6963 69.5813 17.6786 67.2521C32.7111 49.2841 53.8556 36.7232 77.8909 32.8135C78.7169 32.6471 79.6255 32.564 80.534 32.6471C85.9853 32.8135 90.6933 36.2241 92.6756 40.9656C96.888 52.5283 99.0355 65.0061 98.7877 78.0661C98.5399 90.0448 96.2272 101.108 92.18 111.673C90.2803 117.08 85.0768 120.823 79.1299 120.657C78.2213 120.574 77.5606 120.49 76.8998 120.407Z" fill="white"/>
</g>
</g>
</svg>
