<svg width="464" height="150" viewBox="0 0 464 150" fill="none" xmlns="http://www.w3.org/2000/svg">
<g id="Group 7">
<path id="Vector" d="M243.329 71.0786V96.3668H233.831V91.1261C231.436 94.8695 226.728 96.9491 220.368 96.9491C210.539 96.9491 204.427 91.5421 204.427 83.9722C204.427 76.8183 209.217 71.0786 222.267 71.0786H233.335V70.4131C233.335 64.507 229.784 61.0132 222.68 61.0132C217.89 61.0132 212.852 62.5937 209.713 65.3388L205.748 58.0185C210.291 54.4416 216.981 52.6947 223.919 52.6947C236.144 52.7779 243.329 58.684 243.329 71.0786ZM233.253 82.8908V77.8997H222.928C216.073 77.8997 214.256 80.4785 214.256 83.6395C214.256 87.2996 217.312 89.6288 222.433 89.6288C227.306 89.6288 231.601 87.3828 233.253 82.8908Z" fill="white"/>
<path id="Vector_2" d="M278.515 62.6767C274.303 60.5971 269.017 60.098 266.539 60.098C260.427 60.098 257.536 62.0944 257.536 64.9227C257.536 73.6571 284.049 66.7528 284.049 83.6393C284.049 91.7083 276.698 96.9489 264.639 96.9489C257.453 96.9489 250.35 94.8693 246.468 92.1242L250.35 84.4712C254.15 86.9667 259.931 88.7968 265.3 88.7968C271.66 88.7968 274.303 87.0499 274.303 84.0553C274.303 75.82 247.79 82.7243 247.79 65.505C247.79 57.3529 255.058 52.0291 266.622 52.0291C271.495 52.0291 278.433 52.8609 284.627 57.1033L278.515 62.6767Z" fill="white"/>
<path id="Vector_3" d="M293.052 77.3175L318.905 53.1939H330.964L313.041 71.3282L332.616 96.3669H320.392L305.524 77.8166L298.091 84.9705V96.3669H288.014V72.4096L293.052 77.3175ZM288.014 58.6841V36.3905H298.091V60.431L293.631 64.5902L288.014 58.6841Z" fill="white"/>
<path id="Vector_4" d="M334.267 40.0505C334.267 36.6399 336.993 33.978 340.71 33.978C344.426 33.978 347.152 36.4736 347.152 39.801C347.152 43.3779 344.509 46.123 340.71 46.123C336.993 46.123 334.267 43.4611 334.267 40.0505ZM335.671 53.1938H345.748V96.3668H335.671V53.1938Z" fill="white"/>
<path id="Vector_5" d="M352.439 33.978H362.433V96.3668H352.439V33.978Z" fill="white"/>
<path id="Vector_6" d="M367.884 40.0505C367.884 36.6399 370.61 33.978 374.327 33.978C378.044 33.978 380.769 36.4736 380.769 39.801C380.769 43.3779 378.126 46.123 374.327 46.123C370.61 46.123 367.884 43.4611 367.884 40.0505ZM369.288 53.1938H379.365V96.3668H369.288V53.1938Z" fill="white"/>
<path id="Vector_7" d="M203.106 94.0377C200.711 95.951 197.077 96.9492 193.443 96.9492C184.027 96.9492 178.658 91.8749 178.658 82.3087V61.3461H171.555V53.1939H178.658V43.2949H188.652V53.1939H200.133V61.3461H188.652V82.0591C188.652 86.3015 190.717 88.5475 194.599 88.5475C196.664 88.5475 198.729 87.9652 200.215 86.7175L203.106 94.0377Z" fill="white"/>
<path id="Vector_8" d="M416.038 94.0377C413.643 95.951 410.008 96.9492 406.374 96.9492C396.958 96.9492 391.59 91.8749 391.59 82.3087V61.3461H384.486V53.1939H391.59V43.2949H401.584V53.1939H413.064V61.3461H401.584V82.0591C401.584 86.3015 403.649 88.5475 407.531 88.5475C409.595 88.5475 411.66 87.9652 413.147 86.7175L416.038 94.0377Z" fill="white"/>
<path id="Vector_9" d="M463.944 53.1938L443.873 99.8606C439.908 109.676 434.457 112.671 427.354 112.671C423.059 112.671 418.599 111.174 415.873 108.678L419.92 101.275C421.82 103.105 424.546 104.269 427.271 104.269C430.823 104.269 432.888 102.606 434.787 98.2801L435.531 96.6164L416.782 53.1938H427.189L440.652 85.1369L454.28 53.1938H463.944Z" fill="white"/>
<path id="Vector_10" d="M138.599 93.2059C111.177 124.733 73.844 144.198 34.3632 149.772C29.1597 150.52 23.6258 149.439 18.8352 146.361C14.1273 143.366 10.906 138.958 9.25413 134.05C-3.71341 95.951 -3.30043 53.6931 12.0624 14.9289C12.6406 13.5147 13.3013 12.1838 14.1273 10.8528C19.1656 2.86706 28.1686 -0.959446 36.8411 0.205144C57.3249 4.11484 77.4782 11.851 96.1449 23.7465C113.242 34.6437 127.449 47.7869 139.177 63.0098C145.289 70.5796 146.281 81.4768 140.829 90.2113C140.168 91.2927 139.425 92.2909 138.599 93.2059Z" fill="#006EFF"/>
<path id="Vector_11" d="M131.99 99.7776C103.082 126.563 66.1613 140.954 28.6629 142.119C23.7071 142.285 18.6688 140.705 14.4564 137.377C10.3266 134.05 7.76613 129.641 6.77498 124.816C-1.5672 87.8822 3.05817 48.2861 21.3944 13.5148C22.0552 12.267 22.7986 11.0192 23.7071 9.85465C29.1584 2.9503 37.9962 0.205196 46.008 2.28482C64.8398 8.02458 82.8457 17.4245 99.1997 30.4845C114.149 42.4632 126.126 56.1887 135.542 71.6611C140.498 79.3973 140.332 89.7122 134.303 97.2821C133.642 98.1971 132.816 99.0289 131.99 99.7776Z" fill="#0092FF"/>
<path id="Vector_12" d="M123.484 107.181C93.5013 128.393 57.5721 137.128 22.7167 133.551C18.0913 133.051 13.6312 130.972 10.1621 127.395C6.77572 123.818 4.95861 119.409 4.54563 114.834C1.2418 79.5635 10.3273 43.5445 31.5545 13.5979C32.2978 12.5165 33.2064 11.5182 34.1975 10.52C40.1444 4.78027 48.6518 3.36612 55.8376 6.2776C72.522 13.9306 88.1326 24.8278 101.596 38.9693C113.985 51.9461 123.318 66.0876 130.256 81.6432C133.891 89.3794 132.486 98.9456 125.961 105.185C125.135 105.85 124.31 106.515 123.484 107.181Z" fill="#00B1FF"/>
<path id="Vector_13" d="M113.985 113.337C83.5896 128.393 49.5601 131.305 18.1737 123.152C14.044 122.071 10.2446 119.492 7.5189 115.749C4.87583 112.006 3.88468 107.68 4.13247 103.438C6.19736 70.7459 19.4953 39.0524 43.1177 14.7624C43.9436 13.8474 44.9348 13.0156 45.9259 12.3501C52.1206 7.94128 60.1324 7.85809 66.3271 11.5182C80.5336 20.9181 93.2533 33.0631 103.578 47.87C113.076 61.4292 119.684 75.737 123.731 90.9599C125.961 98.5297 123.318 107.098 116.545 111.922C115.719 112.422 114.893 112.921 113.985 113.337Z" fill="#00D4FF"/>
<path id="Vector_14" d="M104.899 117.579C74.9169 127.312 43.2001 125.232 15.4479 113.42C11.7311 111.839 8.59246 109.011 6.69276 105.101C4.79306 101.275 4.38008 97.1987 5.28863 93.3722C11.5659 63.6752 28.0851 36.3905 53.029 17.258C53.9375 16.5925 54.9287 15.927 55.9198 15.4279C62.2797 12.1837 69.6307 13.2651 74.7517 17.4244C86.5629 27.9888 96.557 40.8825 104.073 55.939C110.929 69.7477 115.058 83.8059 116.793 98.2801C117.867 105.6 114.232 113.004 107.377 116.581C106.634 116.997 105.725 117.329 104.899 117.579Z" fill="#00EDF5"/>
<path id="Vector_15" d="M97.0533 120.241C68.0622 125.565 38.8233 119.825 14.4575 105.434C11.2363 103.521 8.67583 100.526 7.27171 96.6163C5.95017 92.8729 6.11537 88.9633 7.3543 85.5527C16.7702 58.6839 35.4369 35.3921 60.8764 20.6684C61.7849 20.0861 62.7761 19.6702 63.7672 19.3375C70.0445 17.0915 76.7347 19.0047 81.0297 23.4967C90.6934 34.7267 98.4574 47.9531 103.661 62.8432C108.369 76.4855 110.516 90.0447 110.434 103.687C110.516 110.591 106.304 117.08 99.4486 119.492C98.7052 119.908 97.8793 120.074 97.0533 120.241Z" fill="#68F5DE"/>
<path id="Vector_16" d="M90.3624 121.073C62.6102 122.986 35.9318 114.584 14.6221 98.5296C11.8138 96.3668 9.66635 93.2889 8.8404 89.5456C8.01444 85.8854 8.51001 82.3085 10.0793 79.1475C21.6427 55.0238 41.5483 35.1426 66.9878 24.079C67.8964 23.6631 68.8875 23.3304 69.8787 23.0808C75.9908 21.6667 82.0202 24.1622 85.5719 28.8206C93.4185 40.3833 99.3654 53.6097 102.587 68.0839C105.56 81.3935 106.138 94.2871 104.651 107.014C103.991 113.503 99.3654 119.076 92.7577 120.657C91.9317 120.906 91.1058 120.99 90.3624 121.073Z" fill="#9DFFDE"/>
<path id="Vector_17" d="M83.6723 121.073C57.5721 119.742 33.6193 108.845 15.6134 91.459C13.2181 89.1298 11.6488 86.052 11.2358 82.475C10.9055 78.9813 11.7314 75.6539 13.5485 72.992C27.0116 51.863 47.8258 35.6419 72.6871 28.1553C73.5956 27.9057 74.5042 27.6562 75.4953 27.573C81.3596 26.9907 86.7284 29.9022 89.5366 34.7269C95.5661 46.3728 99.6133 59.3496 101.017 73.2415C102.339 85.9688 101.43 98.0306 98.5396 109.76C97.218 115.749 92.2623 120.407 85.9024 121.073C85.159 121.073 84.3331 121.156 83.6723 121.073Z" fill="#BBFFDE"/>
<path id="Vector_18" d="M76.9 120.407C52.9473 115.998 31.9679 103.022 17.3485 84.7209C15.3662 82.3086 14.2924 79.2307 14.375 75.8201C14.4576 72.5759 15.6966 69.5813 17.6789 67.2521C32.7113 49.2841 53.8558 36.7232 77.8912 32.8135C78.7171 32.6471 79.6257 32.564 80.5343 32.6471C85.9856 32.8135 90.6935 36.2241 92.6758 40.9656C96.8882 52.5283 99.0357 65.0061 98.7879 78.0661C98.5401 90.0448 96.2274 101.108 92.1803 111.673C90.2806 117.08 85.077 120.823 79.1301 120.657C78.2216 120.574 77.5608 120.49 76.9 120.407Z" fill="white"/>
</g>
</svg>
