<svg width="195" height="53" viewBox="0 0 195 53" fill="none" xmlns="http://www.w3.org/2000/svg">
<g clip-path="url(#clip0)">
<path d="M85.9855 25.1331V34.0693H82.6289V32.2174C81.7825 33.5402 80.1188 34.2751 77.8714 34.2751C74.3981 34.2751 72.2383 32.3644 72.2383 29.6894C72.2383 27.1614 73.9311 25.1331 78.5427 25.1331H82.4538V24.8979C82.4538 22.8109 81.1988 21.5763 78.6887 21.5763C76.9958 21.5763 75.2154 22.1348 74.1063 23.1048L72.7053 20.518C74.3106 19.254 76.6747 18.6367 79.1265 18.6367C83.4462 18.6661 85.9855 20.7532 85.9855 25.1331ZM82.4246 29.3073V27.5435H78.7762C76.3537 27.5435 75.7116 28.4548 75.7116 29.5718C75.7116 30.8652 76.7915 31.6883 78.6011 31.6883C80.3231 31.6883 81.8409 30.8946 82.4246 29.3073Z" fill="white"/>
<path d="M98.4184 22.1642C96.9299 21.4293 95.0619 21.253 94.1863 21.253C92.0264 21.253 91.0048 21.9585 91.0048 22.9579C91.0048 26.0444 100.374 23.6046 100.374 29.5719C100.374 32.4232 97.7763 34.2752 93.5149 34.2752C90.9757 34.2752 88.4655 33.5403 87.0938 32.5702L88.4656 29.8658C89.8082 30.7477 91.8513 31.3944 93.7484 31.3944C95.9959 31.3944 96.9299 30.7771 96.9299 29.7189C96.9299 26.8087 87.5607 29.2485 87.5607 23.1637C87.5607 20.2829 90.1292 18.4016 94.2154 18.4016C95.9375 18.4016 98.3892 18.6956 100.578 20.1947L98.4184 22.1642Z" fill="white"/>
<path d="M103.556 27.3378L112.691 18.8131H116.953L110.619 25.2213L117.536 34.0694H113.217L107.963 27.5142L105.336 30.0422V34.0694H101.775V25.6035L103.556 27.3378ZM101.775 20.7532V12.8752H105.336V21.3705L103.76 22.8403L101.775 20.7532Z" fill="white"/>
<path d="M118.119 14.1686C118.119 12.9634 119.082 12.0227 120.396 12.0227C121.709 12.0227 122.672 12.9046 122.672 14.0804C122.672 15.3444 121.738 16.3144 120.396 16.3144C119.082 16.3144 118.119 15.3738 118.119 14.1686ZM118.615 18.8131H122.176V34.0693H118.615V18.8131Z" fill="white"/>
<path d="M124.541 12.0227H128.073V34.0693H124.541V12.0227Z" fill="white"/>
<path d="M130 14.1686C130 12.9634 130.963 12.0227 132.277 12.0227C133.59 12.0227 134.553 12.9046 134.553 14.0804C134.553 15.3444 133.619 16.3144 132.277 16.3144C130.963 16.3144 130 15.3738 130 14.1686ZM130.496 18.8131H134.057V34.0693H130.496V18.8131Z" fill="white"/>
<path d="M71.7706 33.2462C70.9242 33.9223 69.64 34.275 68.3557 34.275C65.0284 34.275 63.1312 32.4819 63.1312 29.1014V21.6938H60.6211V18.813H63.1312V15.3149H66.6629V18.813H70.7199V21.6938H66.6629V29.0132C66.6629 30.5124 67.3925 31.3061 68.7643 31.3061C69.494 31.3061 70.2237 31.1003 70.7491 30.6594L71.7706 33.2462Z" fill="white"/>
<path d="M147.015 33.2462C146.168 33.9223 144.884 34.275 143.6 34.275C140.273 34.275 138.375 32.4819 138.375 29.1014V21.6938H135.865V18.813H138.375V15.3149H141.907V18.813H145.964V21.6938H141.907V29.0132C141.907 30.5124 142.637 31.3061 144.008 31.3061C144.738 31.3061 145.468 31.1003 145.993 30.6594L147.015 33.2462Z" fill="white"/>
<path d="M163.944 18.813L156.852 35.3038C155.451 38.7725 153.524 39.8307 151.014 39.8307C149.496 39.8307 147.92 39.3016 146.957 38.4198L148.387 35.8036C149.059 36.4503 150.022 36.8618 150.985 36.8618C152.24 36.8618 152.97 36.2739 153.641 34.7453L153.904 34.1574L147.278 18.813H150.956L155.713 30.1008L160.529 18.813H163.944Z" fill="white"/>
<path d="M162.252 33.1873C162.252 32.6288 162.69 32.2173 163.215 32.2173C163.711 32.2173 164.149 32.5994 164.149 33.1873C164.149 33.7458 163.74 34.1574 163.215 34.1574C162.69 34.1574 162.252 33.7458 162.252 33.1873Z" fill="white"/>
<path d="M165.199 30.3361C165.199 28.102 166.834 26.5146 169.11 26.5146C170.453 26.5146 171.562 27.0732 172.146 28.102L171.124 28.7781C170.657 28.0432 169.928 27.7199 169.11 27.7199C167.651 27.7199 166.571 28.7487 166.571 30.3361C166.571 31.9528 167.651 32.9816 169.11 32.9816C169.928 32.9816 170.657 32.6289 171.124 31.9234L172.146 32.5701C171.562 33.6283 170.453 34.1869 169.11 34.1869C166.834 34.1575 165.199 32.5701 165.199 30.3361Z" fill="white"/>
<path d="M173.109 30.3361C173.109 28.102 174.744 26.5146 176.962 26.5146C179.18 26.5146 180.815 28.102 180.815 30.3361C180.815 32.5701 179.18 34.1575 176.962 34.1575C174.744 34.1575 173.109 32.5701 173.109 30.3361ZM179.443 30.3361C179.443 28.7487 178.392 27.7199 176.962 27.7199C175.532 27.7199 174.452 28.7487 174.452 30.3361C174.452 31.9234 175.532 32.9816 176.962 32.9816C178.392 32.9816 179.443 31.9234 179.443 30.3361Z" fill="white"/>
<path d="M195.001 29.7774V34.0692H193.658V29.9244C193.658 28.4547 192.957 27.7492 191.732 27.7492C190.389 27.7492 189.513 28.6016 189.513 30.2184V34.0692H188.171V29.9244C188.171 28.4547 187.47 27.7492 186.244 27.7492C184.902 27.7492 184.026 28.6016 184.026 30.2184V34.0692H182.684V26.6027H183.968V27.7198C184.493 26.9555 185.398 26.5439 186.536 26.5439C187.675 26.5439 188.638 26.9849 189.105 27.9255C189.659 27.0731 190.71 26.5439 191.965 26.5439C193.775 26.5439 195.001 27.5728 195.001 29.7774Z" fill="white"/>
<path d="M48.9755 32.9522C39.2853 44.0931 26.0926 50.9716 12.1411 52.9411C10.3023 53.2057 8.3468 52.8236 6.65394 51.7359C4.99027 50.6777 3.85196 49.1197 3.26822 47.3854C-1.31418 33.9223 -1.16824 18.9894 4.26059 5.29111C4.4649 4.79139 4.6984 4.32106 4.99027 3.85074C6.77069 1.02877 9.9521 -0.323419 13.0168 0.0881176C20.2552 1.4697 27.3769 4.20348 33.9732 8.40703C40.015 12.2578 45.0352 16.9023 49.1798 22.2817C51.3396 24.9567 51.6899 28.8075 49.7635 31.894C49.53 32.2761 49.2673 32.6289 48.9755 32.9522Z" fill="#006EFF"/>
<path d="M46.642 35.2745C36.4265 44.7398 23.3798 49.8252 10.1288 50.2367C8.37755 50.2955 6.59713 49.737 5.10858 48.5612C3.64922 47.3854 2.74441 45.8274 2.39417 44.1225C-0.553746 31.0709 1.08074 17.0787 7.56031 4.79137C7.79381 4.35044 8.05649 3.90951 8.37755 3.49797C10.3039 1.05815 13.4269 0.0881006 16.2581 0.822987C22.9128 2.85127 29.2756 6.17296 35.0547 10.788C40.3376 15.021 44.5697 19.8712 47.8971 25.3388C49.6483 28.0726 49.59 31.7176 47.4593 34.3926C47.2258 34.7159 46.9339 35.0099 46.642 35.2745Z" fill="#0092FF"/>
<path d="M43.6344 37.8906C33.0395 45.3865 20.343 48.473 8.02599 47.209C6.39151 47.0326 4.8154 46.2977 3.58953 45.0337C2.39286 43.7697 1.75074 42.2118 1.6048 40.595C0.43731 28.1314 3.64791 15.4031 11.149 4.82077C11.4117 4.43863 11.7328 4.08588 12.083 3.73313C14.1845 1.70485 17.1908 1.20513 19.7301 2.23397C25.6259 4.93835 31.1423 8.78915 35.8998 13.7864C40.2779 18.3721 43.5761 23.3693 46.0278 28.8662C47.312 31.6 46.8158 34.9805 44.5101 37.1852C44.2182 37.4203 43.9263 37.6555 43.6344 37.8906Z" fill="#00B1FF"/>
<path d="M40.2793 40.0659C29.5384 45.3865 17.5132 46.4153 6.42209 43.5346C4.96273 43.1524 3.62011 42.2412 2.65693 40.9184C1.72294 39.5956 1.3727 38.067 1.46026 36.5679C2.18994 25.0154 6.88909 13.8158 15.2366 5.2323C15.5285 4.90895 15.8788 4.615 16.229 4.37984C18.4181 2.82188 21.2492 2.79248 23.4383 4.08588C28.4585 7.40757 32.9533 11.6993 36.6017 16.9317C39.9582 21.7231 42.2932 26.7792 43.7234 32.1585C44.5115 34.8335 43.5775 37.8613 41.1841 39.5662C40.8922 39.7426 40.6004 39.9189 40.2793 40.0659Z" fill="#00D4FF"/>
<path d="M37.0681 41.5652C26.4732 45.0045 15.2653 44.2696 5.45836 40.0954C4.14493 39.5369 3.03582 38.5375 2.36451 37.1559C1.6932 35.8037 1.54727 34.3633 1.86833 33.0111C4.08656 22.517 9.924 12.8753 18.7386 6.1143C19.0596 5.87913 19.4099 5.64397 19.7601 5.4676C22.0075 4.32118 24.6052 4.70332 26.4148 6.17309C30.5886 9.90631 34.1202 14.4626 36.7763 19.7832C39.1988 24.6628 40.6582 29.6307 41.2711 34.7455C41.6505 37.3323 40.3663 39.9485 37.9438 41.2125C37.6811 41.3594 37.36 41.477 37.0681 41.5652Z" fill="#00EDF5"/>
<path d="M34.2942 42.5059C24.0495 44.3872 13.7172 42.359 5.10698 37.2735C3.96868 36.5974 3.06387 35.5392 2.56769 34.1576C2.10069 32.8348 2.15907 31.4532 2.59688 30.248C5.92422 20.7533 12.5205 12.5226 21.5102 7.31957C21.8313 7.11381 22.1815 6.96683 22.5318 6.84925C24.75 6.05557 27.1142 6.73166 28.6319 8.31902C32.0468 12.2874 34.7904 16.9613 36.6292 22.2231C38.2929 27.0439 39.0518 31.8354 39.0226 36.6562C39.0518 39.0961 37.5632 41.3889 35.1407 42.2414C34.878 42.3883 34.5861 42.4471 34.2942 42.5059Z" fill="#68F5DE"/>
<path d="M31.9318 42.7998C22.1249 43.4759 12.6974 40.5069 5.16709 34.8336C4.17473 34.0693 3.41586 32.9817 3.12399 31.6589C2.83211 30.3655 3.00724 29.1015 3.5618 27.9845C7.64801 19.4598 14.6821 12.4343 23.6718 8.52467C23.9929 8.37769 24.3431 8.26011 24.6934 8.17193C26.8532 7.6722 28.9839 8.55407 30.2389 10.2002C33.0117 14.2862 35.1132 18.9601 36.2515 24.0749C37.3023 28.7781 37.5066 33.3344 36.9812 37.8319C36.7477 40.1248 35.1132 42.0943 32.7782 42.6528C32.4864 42.741 32.1945 42.7704 31.9318 42.7998Z" fill="#9DFFDE"/>
<path d="M29.5658 42.7997C20.3426 42.3294 11.8783 38.4786 5.51547 32.3349C4.66904 31.5118 4.11449 30.4242 3.96855 29.1602C3.8518 27.9256 4.14367 26.7498 4.78579 25.8091C9.54331 18.3427 16.8985 12.6106 25.6839 9.96498C26.0049 9.87679 26.326 9.7886 26.6762 9.75921C28.7485 9.55344 30.6457 10.5823 31.6381 12.2872C33.7687 16.4026 35.1989 20.9883 35.6951 25.8973C36.1621 30.3948 35.841 34.6571 34.8195 38.8019C34.3525 40.9184 32.6012 42.5645 30.3538 42.7997C30.0911 42.7997 29.7993 42.8291 29.5658 42.7997Z" fill="#BBFFDE"/>
<path d="M27.1725 42.5645C18.7082 41.0066 11.2946 36.4209 6.12848 29.9539C5.42799 29.1014 5.04855 28.0138 5.07774 26.8085C5.10693 25.6621 5.54474 24.6039 6.24523 23.7808C11.5573 17.4314 19.0292 12.9927 27.5227 11.6111C27.8146 11.5523 28.1357 11.5229 28.4567 11.5523C30.3831 11.6111 32.0468 12.8163 32.7472 14.4918C34.2358 18.5778 34.9947 22.9871 34.9071 27.6022C34.8195 31.8352 34.0023 35.7448 32.5721 39.478C31.9008 41.3887 30.062 42.7115 27.9605 42.6527C27.6395 42.6233 27.406 42.5939 27.1725 42.5645Z" fill="white"/>
</g>
<defs>
<clipPath id="clip0">
<rect width="195" height="53" fill="white"/>
</clipPath>
</defs>
</svg>
