<svg width="38" height="40" viewBox="0 0 38 40" fill="none" xmlns="http://www.w3.org/2000/svg">
<path d="M36.4745 24.5286C29.258 32.8254 19.4332 37.948 9.04321 39.4147C7.67382 39.6118 6.21749 39.3272 4.95678 38.5172C3.71781 37.7291 2.87009 36.5688 2.43537 35.2773C-0.977241 25.251 -0.868559 14.1302 3.1744 3.92876C3.32656 3.55661 3.50045 3.20635 3.71781 2.85609C5.04373 0.754512 7.41299 -0.252493 9.6953 0.0539867C15.0859 1.08288 20.3896 3.11878 25.302 6.24925C29.8014 9.11703 33.5401 12.5759 36.6266 16.582C38.2351 18.5741 38.496 21.4419 37.0614 23.7405C36.8875 24.0251 36.6918 24.2878 36.4745 24.5286Z" fill="#006EFF"/>
<path d="M34.7356 26.2578C27.1279 33.3068 17.4117 37.0941 7.54341 37.4005C6.23923 37.4443 4.91331 37.0284 3.80476 36.1527C2.71794 35.2771 2.04411 34.1168 1.78328 32.8471C-0.412093 23.1273 0.805143 12.707 5.63061 3.55642C5.8045 3.22805 6.00013 2.89968 6.23923 2.5932C7.67383 0.776212 9.99962 0.0537956 12.108 0.601081C17.0639 2.11159 21.8025 4.58532 26.1063 8.02227C30.0405 11.1746 33.1923 14.7867 35.6703 18.8585C36.9744 20.8944 36.931 23.6089 35.3442 25.6011C35.1703 25.8419 34.953 26.0608 34.7356 26.2578Z" fill="#0092FF"/>
<path d="M32.4966 28.2062C24.6063 33.7885 15.151 36.0871 5.97826 35.1458C4.76102 35.0144 3.58726 34.4671 2.67433 33.5258C1.78314 32.5845 1.30494 31.4242 1.19626 30.2202C0.326809 20.9382 2.71781 11.4593 8.30405 3.57836C8.49968 3.29378 8.73878 3.03108 8.99961 2.76838C10.5646 1.25787 12.8035 0.885721 14.6945 1.65192C19.0853 3.66593 23.1934 6.5337 26.7365 10.2552C29.9969 13.6703 32.4531 17.3918 34.279 21.4855C35.2354 23.5214 34.8659 26.0389 33.1487 27.6808C32.9313 27.8559 32.714 28.0311 32.4966 28.2062Z" fill="#00B1FF"/>
<path d="M29.9969 29.8263C21.9979 33.7886 13.0425 34.5548 4.78274 32.4095C3.69592 32.1249 2.69605 31.4462 1.97875 30.4611C1.28318 29.476 1.02235 28.3377 1.08756 27.2212C1.63096 18.6179 5.13052 10.2773 11.3471 3.88497C11.5645 3.64416 11.8253 3.42525 12.0861 3.25012C13.7164 2.08987 15.8248 2.06798 17.455 3.0312C21.1937 5.50493 24.5411 8.70108 27.2581 12.5977C29.7578 16.166 31.4967 19.9314 32.5618 23.9375C33.1487 25.9296 32.4531 28.1844 30.6707 29.4541C30.4534 29.5855 30.236 29.7168 29.9969 29.8263Z" fill="#00D4FF"/>
<path d="M27.6061 30.9428C19.7158 33.5041 11.3691 32.9568 4.06565 29.8482C3.08752 29.4323 2.26154 28.688 1.7616 27.6591C1.26166 26.6521 1.15298 25.5794 1.39208 24.5724C3.04404 16.7572 7.39131 9.57681 13.9557 4.54178C14.1948 4.36665 14.4556 4.19152 14.7165 4.06017C16.3902 3.20641 18.3247 3.491 19.6723 4.58557C22.7806 7.36577 25.4107 10.7589 27.3888 14.7213C29.1929 18.3553 30.2797 22.0549 30.7361 25.864C31.0187 27.7904 30.0623 29.7388 28.2582 30.6801C28.0626 30.7896 27.8235 30.8771 27.6061 30.9428Z" fill="#00EDF5"/>
<path d="M25.541 31.6434C17.9115 33.0444 10.2168 31.5339 3.80461 27.7467C2.95689 27.2432 2.28307 26.4551 1.91355 25.4262C1.56577 24.4411 1.60924 23.4122 1.93529 22.5147C4.41323 15.4437 9.32564 9.31413 16.0204 5.43936C16.2595 5.28612 16.5204 5.17666 16.7812 5.08909C18.4332 4.49803 20.1938 5.00153 21.3241 6.18366C23.8673 9.139 25.9105 12.6197 27.2799 16.5383C28.5188 20.1285 29.084 23.6968 29.0622 27.287C29.084 29.104 27.9754 30.8115 26.1713 31.4463C25.9757 31.5558 25.7583 31.5996 25.541 31.6434Z" fill="#68F5DE"/>
<path d="M23.7802 31.8621C16.4767 32.3657 9.45591 30.1546 3.84793 25.9296C3.10889 25.3604 2.54375 24.5504 2.32638 23.5653C2.10902 22.6021 2.23944 21.6608 2.65243 20.8289C5.69552 14.4804 10.934 9.24832 17.6288 6.33677C17.8679 6.22731 18.1287 6.13974 18.3895 6.07407C19.998 5.70192 21.5848 6.35866 22.5195 7.58458C24.5844 10.6275 26.1494 14.1082 26.9971 17.9173C27.7796 21.4199 27.9318 24.8131 27.5405 28.1625C27.3667 29.87 26.1494 31.3368 24.4105 31.7527C24.1932 31.8184 23.9758 31.8403 23.7802 31.8621Z" fill="#9DFFDE"/>
<path d="M22.02 31.8621C15.1513 31.5119 8.84779 28.6441 4.10926 24.0688C3.47891 23.4559 3.06592 22.6459 2.95724 21.7045C2.87029 20.7851 3.08765 19.9094 3.56585 19.2089C7.10888 13.6485 12.5864 9.37968 19.1291 7.40946C19.3682 7.34378 19.6073 7.27811 19.8681 7.25622C21.4114 7.10298 22.8243 7.86918 23.5633 9.13888C25.15 12.2037 26.2151 15.6187 26.5846 19.2746C26.9324 22.624 26.6933 25.7982 25.9326 28.8849C25.5848 30.4611 24.2806 31.687 22.6069 31.8621C22.4113 31.8621 22.1939 31.884 22.02 31.8621Z" fill="white"/>
</svg>
